<svg width="19" height="19" viewBox="0 0 19 19" fill="none" xmlns="http://www.w3.org/2000/svg">
<path d="M3.51721 15.4828C6.00601 17.9716 8.87886 18 9.00004 18C9.16002 18 9.30482 17.9048 9.36763 17.7576L12.9677 9.35757C13.0321 9.20715 12.9985 9.03278 12.8829 8.91718L10.0829 6.11719C10.0065 6.04078 9.90408 6 9.80006 6C9.74686 6 9.69328 6.01041 9.64247 6.03239L7.69043 6.86921L7.68884 6.87L1.24239 9.6324C1.0952 9.69522 1 9.84001 1 10C1 10.1212 1.02841 12.9944 3.51721 15.4828ZM7.74846 7.71437L10.3173 10.2828C10.4737 10.4392 10.7265 10.4392 10.8829 10.2828C11.0393 10.1264 11.0393 9.87353 10.8829 9.71715L8.54085 7.37475L9.70847 6.87436L12.1257 9.29157L8.74325 17.1832C8.38086 17.1476 7.66882 17.0388 6.81682 16.7064L7.72564 15.4324C7.85403 15.2524 7.81203 15.0028 7.63245 14.8744C7.56167 14.8243 7.48085 14.8 7.40046 14.8C7.27526 14.8 7.15244 14.8584 7.07444 14.9676L6.07445 16.3696C5.81124 16.2344 5.54246 16.0768 5.27166 15.894L7.68284 13.4828C7.83922 13.3264 7.83922 13.0736 7.68284 12.9172C7.60484 12.8392 7.50242 12.8 7.40004 12.8C7.29762 12.8 7.19524 12.8392 7.11724 12.9172L4.62563 15.4088C4.44323 15.2568 4.26164 15.096 4.08281 14.9172C3.29999 14.134 2.78722 13.3028 2.44878 12.5504L4.01718 11.5356C4.20276 11.416 4.25597 11.168 4.13596 10.9828C4.05918 10.8644 3.93074 10.8 3.79954 10.8C3.72473 10.8 3.64996 10.8208 3.58274 10.8644L2.15271 11.7896C1.92949 11.1148 1.84634 10.5608 1.81671 10.2564L7.74846 7.71437Z" fill="black" stroke="black" stroke-width="0.5"/>
<path d="M12.2959 6.21166L14.6788 3.82958L17.0617 1.44749C17.1967 1.31255 17.4168 1.31255 17.5518 1.44749C17.6174 1.51299 17.6534 1.60012 17.6534 1.69264C17.6534 1.78515 17.6174 1.87213 17.5518 1.9376L12.7832 6.70437C12.7156 6.77193 12.7156 6.8816 12.7832 6.94933C12.851 7.01689 12.9607 7.01689 13.0283 6.94933L17.7969 2.18256C17.9279 2.05178 18 1.87767 18 1.69264C18 1.50761 17.9279 1.3335 17.7969 1.20253C17.6619 1.06757 17.4843 1 17.3068 1C17.1293 1 16.9517 1.06757 16.8167 1.20253L12.0508 5.9667C11.9831 6.03426 11.9831 6.14393 12.0508 6.21166C12.1186 6.27941 12.2281 6.27941 12.2959 6.21166Z" fill="black" stroke="black" stroke-width="0.5"/>
</svg>
